<?xml version="1.0" encoding="UTF-8"?>
<svg width="310px" height="310px" viewBox="0 0 310 310" version="1.1" xmlns="http://www.w3.org/2000/svg" xmlns:xlink="http://www.w3.org/1999/xlink">
    <!-- Generator: Sketch 49.1 (51147) - http://www.bohemiancoding.com/sketch -->
    <title>logo</title>
    <desc>Created with Sketch.</desc>
    <defs></defs>
    <g id="Web-LOGO" stroke="none" stroke-width="1" fill="none" fill-rule="evenodd">
        <g id="面板" transform="translate(-101.000000, -101.000000)">
            <g id="Group" transform="translate(101.000000, 101.000000)">
                <g id="Shape" transform="translate(17.500000, 2.500000)">
                    <path d="M117.7,82.5 L117.7,31.5 C117.7,23.2157288 124.415729,16.5 132.7,16.5 L140.65,16.5 C148.934271,16.5 155.65,23.2157288 155.65,31.5 L155.65,82.5 L196.35,82.5 L196.35,15 C196.35,6.71572875 203.065729,1.52179594e-15 211.35,0 L219.3,0 C227.584271,-1.52179594e-15 234.3,6.71572875 234.3,15 L234.3,82.5 L260,82.5 C268.284271,82.5 275,89.2157288 275,97.5 L275,164.934504 L274.979876,164.934504 C274.993274,165.72445 275,166.51602 275,167.30916 C275,243.188026 213.439153,304.7 137.5,304.7 C61.5608469,304.7 0,243.188026 0,167.30916 C0,166.51602 0.0067260864,165.72445 0.0201243742,164.934504 L0,164.934504 L-1.77635684e-15,97.5 C-2.79088747e-15,89.2157288 6.71572875,82.5 15,82.5 L39.05,82.5 L39.05,15 C39.05,6.71572875 45.7657288,-2.54560899e-16 54.05,-1.77635684e-15 L62,-1.77635684e-15 C70.2842712,-3.29815278e-15 77,6.71572875 77,15 L77,82.5 L117.7,82.5 Z M236.5,176.419847 C236.5,175.901558 236.495157,175.384294 236.5,174.868092 L236.5,128.481679 C236.5,124.349662 232.806349,121 228.25,121 L46.75,121 C42.1936508,121 38.5,124.349662 38.5,128.481679 L38.5144895,174.868092 C38.5048428,175.384294 38.5,175.901558 38.5,176.419847 C38.5,226.004056 82.8238098,266.2 137.5,266.2 C192.17619,266.2 236.5,226.004056 236.5,176.419847 Z" id="插头" fill="#34495D"></path>
                    <path d="M81.3554859,292.761973 C33.4052251,271.303861 0,223.204518 0,167.30916 C0,166.51602 0.0067260864,165.72445 0.0201243742,164.934504 L0,164.934504 L-1.77635684e-15,97.5 C-2.79088747e-15,89.2157288 6.71572875,82.5 15,82.5 L39.05,82.5 L39.05,15 C39.05,6.71572875 45.7657288,-2.54560899e-16 54.05,-1.77635684e-15 L62,-1.77635684e-15 C70.2842712,-3.29815278e-15 77,6.71572875 77,15 L77,82.5 L117.7,82.5 L117.7,31.5 C117.7,23.2157288 124.415729,16.5 132.7,16.5 L140.65,16.5 C148.934271,16.5 155.65,23.2157288 155.65,31.5 L155.65,82.5 L196.35,82.5 L196.35,15 C196.35,6.71572875 203.065729,1.52179594e-15 211.35,0 L219.3,0 C227.584271,-1.52179594e-15 234.3,6.71572875 234.3,15 L234.3,82.5 L260,82.5 C268.284271,82.5 275,89.2157288 275,97.5 L275,99.1174593 L236.5,137.617459 L236.5,128.481679 C236.5,124.349662 232.806349,121 228.25,121 L46.75,121 C42.1936508,121 38.5,124.349662 38.5,128.481679 L38.5144895,174.868092 C38.5048428,175.384294 38.5,175.901558 38.5,176.419847 C38.5,217.724926 69.2579373,252.515138 111.135959,262.981501 L81.3554859,292.761973 Z" id="Combined-Shape" fill="#3EB883"></path>
                </g>
            </g>
        </g>
    </g>
</svg>